<svg xmlns="http://www.w3.org/2000/svg" xmlns:xlink="http://www.w3.org/1999/xlink" width="818" height="212" viewBox="0 0 818 212"><defs><path id="jrura" d="M880 1030a3 3 0 0 1 3-3h797a3 3 0 0 1 3 3v206a3 3 0 0 1-3 3H883a3 3 0 0 1-3-3z"/><path id="jrurc" d="M872.575 1102.147l.707-.708 7.071 7.071 6.365-6.363.707.707-7.071 7.07-.708-.707z"/><path id="jrurd" d="M1674.575 1102.147l.707-.708 7.071 7.071 6.365-6.363.707.707-7.071 7.07-.708-.707z"/><path id="jrure" d="M1273.575 1102.147l.708-.708 6.717 6.718V1078h1v29.864l5.718-5.717.707.707-7.071 7.07-.707-.707z"/><clipPath id="jrurb"><use fill="#fff" xlink:href="#jrura"/></clipPath></defs><g><g transform="translate(-872 -1027)"><use fill="#fff" xlink:href="#jrura"/><use fill="#fff" fill-opacity="0" stroke="#d7d6d6" stroke-linecap="round" stroke-linejoin="round" stroke-miterlimit="50" stroke-width="2" clip-path="url(&quot;#jrurb&quot;)" xlink:href="#jrura"/></g><g transform="translate(-872 -1027)"><use fill="#d7d6d6" xlink:href="#jrurc"/></g><g transform="translate(-872 -1027)"><use fill="#d7d6d6" xlink:href="#jrurd"/></g><g transform="translate(-872 -1027)"><use fill="#d7d6d6" xlink:href="#jrure"/></g></g></svg>