<svg xmlns="http://www.w3.org/2000/svg" xmlns:xlink="http://www.w3.org/1999/xlink" width="70" height="70" viewBox="0 0 70 70"><defs><path id="ucm5a" d="M1680 6121c19.33 0 35 15.67 35 35s-15.67 35-35 35-35-15.67-35-35 15.67-35 35-35z"/><path id="ucm5b" d="M1698 6139.807V6173h-36v-33.193h8.414c.321-1.599 1.714-2.807 3.379-2.807 1.901 0 3.448 1.574 3.448 3.509 0 1.934-1.547 3.508-3.448 3.508a.695.695 0 0 1-.69-.701c0-.389.309-.702.69-.702 1.14 0 2.069-.945 2.069-2.105 0-1.161-.928-2.106-2.069-2.106-.898 0-1.656.588-1.942 1.404h1.252c.382 0 .69.314.69.702a.695.695 0 0 1-.69.701h-9.724v6.316h33.242v-6.316h-7.035c-.321 1.6-1.714 2.807-3.379 2.807a.695.695 0 0 1-.69-.701c0-.389.309-.702.69-.702 1.14 0 2.069-.945 2.069-2.105 0-1.161-.928-2.106-2.069-2.106a.695.695 0 0 1-.69-.702c0-.387.309-.701.69-.701 1.665 0 3.058 1.208 3.379 2.807zm-1.38 9.123h-33.24v22.667h33.24zm-19.379-11.229c0-.387.309-.701.69-.701 1.901 0 3.448 1.574 3.448 3.509 0 1.934-1.547 3.508-3.448 3.508a.695.695 0 0 1-.69-.701c0-.389.309-.702.69-.702 1.14 0 2.069-.945 2.069-2.105 0-1.161-.928-2.106-2.07-2.106a.695.695 0 0 1-.689-.702zm4.138 0c0-.387.309-.701.69-.701 1.901 0 3.448 1.574 3.448 3.509 0 1.934-1.547 3.508-3.448 3.508a.695.695 0 0 1-.69-.701c0-.389.309-.702.69-.702 1.14 0 2.069-.945 2.069-2.105 0-1.161-.928-2.106-2.07-2.106a.695.695 0 0 1-.689-.702z"/><clipPath id="ucm5c"><use fill="#fff" xlink:href="#ucm5a"/></clipPath></defs><g><g transform="translate(-1645 -6121)"><use fill="#45b9bd" xlink:href="#ucm5b"/></g><g transform="translate(-1645 -6121)"><use fill="#fff" xlink:href="#ucm5a"/><use fill="#fff" fill-opacity="0" stroke="#45b9bd" stroke-linecap="round" stroke-linejoin="round" stroke-miterlimit="50" stroke-width="4" clip-path="url(&quot;#ucm5c&quot;)" xlink:href="#ucm5a"/></g></g></svg>