<svg xmlns="http://www.w3.org/2000/svg" xmlns:xlink="http://www.w3.org/1999/xlink" width="70" height="70" viewBox="0 0 70 70"><defs><path id="df76a" d="M1281 6121c19.33 0 35 15.67 35 35s-15.67 35-35 35-35-15.67-35-35 15.67-35 35-35z"/><path id="df76c" d="M1304 6155.5c0 6.21-2.532 11.847-6.592 15.908A22.459 22.459 0 0 1 1281.5 6178a22.458 22.458 0 0 1-15.908-6.592A22.458 22.458 0 0 1 1259 6155.5c0-6.21 2.532-11.848 6.592-15.908A22.458 22.458 0 0 1 1281.5 6133c6.21 0 11.847 2.532 15.908 6.592A22.457 22.457 0 0 1 1304 6155.5zm-1.767 0c0-5.685-2.341-10.892-6.067-14.618-3.774-3.726-8.933-6.067-14.666-6.067-5.732 0-10.892 2.294-14.618 6.067-3.774 3.726-6.067 8.885-6.067 14.618a20.608 20.608 0 0 0 6.067 14.665c3.726 3.726 8.886 6.068 14.618 6.068 5.733 0 10.94-2.342 14.666-6.068 3.726-3.773 6.067-8.932 6.067-14.665zm-3.153-.048c0 4.873-2.007 9.268-5.16 12.42-3.2 3.201-7.595 5.16-12.42 5.16s-9.22-1.959-12.42-5.112c-3.153-3.2-5.16-7.547-5.16-12.42s2.007-9.268 5.16-12.42c3.2-3.201 7.595-5.16 12.42-5.16 4.873 0 9.268 2.007 12.42 5.16 3.153 3.2 5.16 7.5 5.16 12.372zm-1.864.956h-2.245a.907.907 0 1 1 0-1.815h2.245a15.726 15.726 0 0 0-4.585-10.224c-2.628-2.675-6.21-4.347-10.223-4.585v2.244a.907.907 0 1 1-1.816 0v-2.244a15.721 15.721 0 0 0-10.223 4.585 15.397 15.397 0 0 0-4.586 10.224h2.246a.907.907 0 1 1 0 1.815h-2.246a15.724 15.724 0 0 0 4.586 10.222c2.628 2.676 6.21 4.348 10.223 4.586v-2.245a.907.907 0 1 1 1.816 0v2.245a15.722 15.722 0 0 0 10.223-4.586c2.675-2.626 4.347-6.21 4.585-10.222zm-13.757-2.914c.477.525.812 1.241.812 2.006 0 .765-.287 1.481-.812 2.006-.526.478-1.243.812-2.007.812s-1.48-.287-2.006-.812a2.841 2.841 0 0 1-.669-1.098h-5.446c-.477 0-.907-.43-.907-.908 0-.525.43-.907.907-.907h5.446c.143-.43.382-.813.669-1.1l.048-.047c.286-.287.668-.478 1.05-.621v-7.309a.907.907 0 1 1 1.816 0v7.309c.43.143.812.382 1.099.669zm-.908 1.958a.973.973 0 0 0-.287-.717c-.143-.19-.43-.286-.716-.286a.972.972 0 0 0-.717.286l-.048.049a.972.972 0 0 0-.286.716c0 .287.095.525.286.717.144.19.43.286.717.286a.971.971 0 0 0 .716-.286c.192-.144.335-.43.335-.765z"/><clipPath id="df76b"><use fill="#fff" xlink:href="#df76a"/></clipPath></defs><g><g transform="translate(-1246 -6121)"><use fill="#fff" xlink:href="#df76a"/><use fill="#fff" fill-opacity="0" stroke="#45b9bd" stroke-linecap="round" stroke-linejoin="round" stroke-miterlimit="50" stroke-width="4" clip-path="url(&quot;#df76b&quot;)" xlink:href="#df76a"/></g><g transform="translate(-1246 -6121)"><use fill="#45b9bd" xlink:href="#df76c"/></g></g></svg>