<svg xmlns="http://www.w3.org/2000/svg" xmlns:xlink="http://www.w3.org/1999/xlink" width="70" height="70" viewBox="0 0 70 70"><defs><path id="byvna" d="M881 6121c19.33 0 35 15.67 35 35s-15.67 35-35 35-35-15.67-35-35 15.67-35 35-35z"/><path id="byvnc" d="M891 6144.143v25.716c0 5.592-4.486 10.141-10 10.141s-10-4.55-10-10.141v-25.716c0-5.592 4.486-10.143 10-10.143s10 4.55 10 10.143zm-18.256 0v11.973h16.512v-11.973c0-4.618-3.704-8.375-8.256-8.375s-8.256 3.757-8.256 8.375zm16.512 25.716v-11.975h-16.512v11.975c0 4.616 3.704 8.372 8.256 8.372 4.551 0 8.256-3.756 8.256-8.372zm-3.16-15.941v-6.78c0-.487.39-.883.871-.883.482 0 .872.396.872.884v6.779c0 .488-.39.884-.872.884a.878.878 0 0 1-.872-.884z"/><clipPath id="byvnb"><use fill="#fff" xlink:href="#byvna"/></clipPath></defs><g><g transform="translate(-846 -6121)"><use fill="#fff" xlink:href="#byvna"/><use fill="#fff" fill-opacity="0" stroke="#45b9bd" stroke-linecap="round" stroke-linejoin="round" stroke-miterlimit="50" stroke-width="4" clip-path="url(&quot;#byvnb&quot;)" xlink:href="#byvna"/></g><g transform="translate(-846 -6121)"><use fill="#45b9bd" xlink:href="#byvnc"/></g></g></svg>